# xmcd CD database file
#
# Track frame offsets:
#	150
#	18307
#	32430
#	75597
#	88647
#	107237
#	121327
#	132892
#	144747
#	157312
#	177297
#	187942
#	198927
#	211580
#	229600
#
# Disc length: 3324 seconds
#
# Revision: 0
# Processed by: cddbd v1.5.1PL0 Copyright (c) Steve Scherf et al.
# Submitted via: CDex 1.51
#
DISCID=be0cfa0f
DTITLE=Various Artist - JAZZ CM hits Special
DYEAR=1998
DGENRE=Jazz
TTITLE0=The Continental(ELIANE ELIAS )
TTITLE1=It's Only A Paper Moon(NAT KING COLE)
TTITLE2=Moanin'(ART BLAKEY AND THE JAZZ MESSENGERS)
TTITLE3=Eu Sou Carioca(LISA ONO)
TTITLE4=A Song For You(LEON RUSSELL)
TTITLE5=Bye Bye Vlackbird(DEAN MARTIN)
TTITLE6=Love(NAT KING COLE)
TTITLE7=Happy Talk(MARTIN DENNY)
TTITLE8=My Favorite Things(SARAH VAUGHAN)
TTITLE9=Cleopatra's Dream(BUD POWELL)
TTITLE10=Over The Rainbow(FOUR FRESHMEN)
TTITLE11=Lullaby Of Birdland(STAN GETS)
TTITLE12=Smoke Gets In Your Eyes(JO STAFFORD)
TTITLE13=MAS QUE NADA(XXL)
TTITLE14=A World Away(KURT ELLING)
EXTD=YEAR: 1998
EXTT0=
EXTT1=
EXTT2=
EXTT3=
EXTT4=
EXTT5=
EXTT6=
EXTT7=
EXTT8=
EXTT9=
EXTT10=
EXTT11=
EXTT12=
EXTT13=
EXTT14=
PLAYORDER=
